<svg width="214" height="32" viewBox="0 0 214 32" fill="none" xmlns="http://www.w3.org/2000/svg">
<g clip-path="url(#clip0_4_47)">
<path d="M23.7201 19.3333V26.6667H5.05339V7.99999H13.7467L11.3867 5.33333H5.05339C3.58672 5.33333 2.38672 6.53333 2.38672 7.99999V26.6667C2.38672 28.1333 3.58672 29.3333 5.05339 29.3333H23.7201C25.1867 29.3333 26.3867 28.1333 26.3867 26.6667V22L23.7201 19.3333ZM21.7201 24H7.05339L10.7201 19.2933L13.3334 22.44L17.0001 17.72L21.7201 24Z" fill="white"/>
<path d="M17 3L14.94 2.06L14 1.77621e-06L13.06 2.06L11 3L13.06 3.94L14 6L14.94 3.94L17 3Z" fill="white"/>
<path d="M19.12 5.29L16.29 8.12C16.1 8.32 16 8.57 16 8.83C16 9.09 16.1 9.34 16.29 9.54L27.46 20.71C27.85 21.1 28.48 21.1 28.87 20.71L31.7 17.88C31.9 17.68 32 17.43 32 17.17C32 16.91 31.9 16.66 31.71 16.46L20.54 5.29C20.15 4.9 19.51 4.9 19.12 5.29ZM18.42 8.83L19.83 7.42L21 8.59L19.59 10L18.42 8.83ZM29.59 17.17L28.18 18.58L21 11.41L22.41 10L29.59 17.17Z" fill="white"/>
</g>
<path d="M56.6619 13.4347H53.4744C53.3835 12.9119 53.2159 12.4489 52.9716 12.0455C52.7273 11.6364 52.4233 11.2898 52.0597 11.0057C51.696 10.7216 51.2813 10.5085 50.8153 10.3665C50.3551 10.2188 49.858 10.1449 49.3239 10.1449C48.375 10.1449 47.5341 10.3835 46.8011 10.8608C46.0682 11.3324 45.4943 12.0256 45.0795 12.9403C44.6648 13.8494 44.4574 14.9602 44.4574 16.2727C44.4574 17.608 44.6648 18.733 45.0795 19.6477C45.5 20.5568 46.0739 21.2443 46.8011 21.7102C47.5341 22.1705 48.3722 22.4006 49.3153 22.4006C49.8381 22.4006 50.3267 22.3324 50.7812 22.196C51.2415 22.054 51.6534 21.8466 52.017 21.5739C52.3864 21.3011 52.696 20.9659 52.946 20.5682C53.2017 20.1705 53.3778 19.7159 53.4744 19.2045L56.6619 19.2216C56.5426 20.0511 56.2841 20.8295 55.8864 21.5568C55.4943 22.2841 54.9801 22.9261 54.3438 23.483C53.7074 24.0341 52.9631 24.4659 52.1108 24.7784C51.2585 25.0852 50.3125 25.2386 49.2727 25.2386C47.7386 25.2386 46.3693 24.8835 45.1648 24.1733C43.9602 23.4631 43.0114 22.4375 42.3182 21.0966C41.625 19.7557 41.2784 18.1477 41.2784 16.2727C41.2784 14.392 41.6278 12.7841 42.3267 11.4489C43.0256 10.108 43.9773 9.08239 45.1818 8.37216C46.3864 7.66193 47.75 7.30682 49.2727 7.30682C50.2443 7.30682 51.1477 7.44318 51.983 7.71591C52.8182 7.98864 53.5625 8.3892 54.2159 8.91761C54.8693 9.44034 55.4063 10.0824 55.8267 10.8438C56.2528 11.5994 56.5313 12.4631 56.6619 13.4347ZM67.1649 19.4943V11.9091H70.2501V25H67.2587V22.6733H67.1223C66.8268 23.4062 66.3411 24.0057 65.6649 24.4716C64.9945 24.9375 64.1678 25.1705 63.1848 25.1705C62.3268 25.1705 61.5683 24.9801 60.9092 24.5994C60.2558 24.2131 59.7445 23.6534 59.3751 22.9205C59.0058 22.1818 58.8212 21.2898 58.8212 20.2443V11.9091H61.9064V19.767C61.9064 20.5966 62.1337 21.2557 62.5882 21.7443C63.0428 22.233 63.6393 22.4773 64.378 22.4773C64.8325 22.4773 65.2729 22.3665 65.699 22.1449C66.1251 21.9233 66.4746 21.5938 66.7473 21.1562C67.0257 20.7131 67.1649 20.1591 67.1649 19.4943ZM83.1693 15.3693L80.3568 15.6761C80.2773 15.392 80.1381 15.125 79.9392 14.875C79.746 14.625 79.4847 14.4233 79.1551 14.2699C78.8256 14.1165 78.4222 14.0398 77.9449 14.0398C77.3028 14.0398 76.7631 14.179 76.3256 14.4574C75.8937 14.7358 75.6807 15.0966 75.6864 15.5398C75.6807 15.9205 75.8199 16.2301 76.104 16.4688C76.3937 16.7074 76.871 16.9034 77.5358 17.0568L79.7687 17.5341C81.0074 17.8011 81.9278 18.2244 82.5301 18.804C83.1381 19.3835 83.4449 20.142 83.4506 21.0795C83.4449 21.9034 83.2034 22.6307 82.7261 23.2614C82.2545 23.8864 81.5983 24.375 80.7574 24.7273C79.9165 25.0795 78.9506 25.2557 77.8597 25.2557C76.2574 25.2557 74.9676 24.9205 73.9903 24.25C73.0131 23.5739 72.4307 22.6335 72.2432 21.429L75.2517 21.1392C75.3881 21.7301 75.6778 22.1761 76.121 22.4773C76.5642 22.7784 77.1409 22.929 77.8511 22.929C78.5841 22.929 79.1722 22.7784 79.6153 22.4773C80.0642 22.1761 80.2886 21.804 80.2886 21.3608C80.2886 20.9858 80.1437 20.6761 79.854 20.4318C79.5699 20.1875 79.1267 20 78.5244 19.8693L76.2915 19.4006C75.0358 19.1392 74.1068 18.6989 73.5045 18.0795C72.9023 17.4545 72.604 16.6648 72.6097 15.7102C72.604 14.9034 72.8227 14.2045 73.2659 13.6136C73.7148 13.017 74.3369 12.5568 75.1324 12.233C75.9335 11.9034 76.8568 11.7386 77.9023 11.7386C79.4364 11.7386 80.6437 12.0653 81.5244 12.7188C82.4108 13.3722 82.9591 14.2557 83.1693 15.3693ZM91.9315 11.9091V14.2955H84.406V11.9091H91.9315ZM86.2639 8.77273H89.3491V21.0625C89.3491 21.4773 89.4116 21.7955 89.5366 22.017C89.6673 22.233 89.8378 22.3807 90.048 22.4602C90.2582 22.5398 90.4912 22.5795 90.7469 22.5795C90.9401 22.5795 91.1162 22.5653 91.2753 22.5369C91.4401 22.5085 91.5651 22.483 91.6503 22.4602L92.1702 24.8722C92.0054 24.929 91.7696 24.9915 91.4628 25.0597C91.1616 25.1278 90.7923 25.1676 90.3548 25.179C89.5821 25.2017 88.8861 25.0852 88.2668 24.8295C87.6474 24.5682 87.156 24.1648 86.7923 23.6193C86.4344 23.0739 86.2582 22.392 86.2639 21.5739V8.77273ZM99.4814 25.2557C98.203 25.2557 97.095 24.9744 96.1575 24.4119C95.22 23.8494 94.4928 23.0625 93.9757 22.0511C93.4643 21.0398 93.2087 19.858 93.2087 18.5057C93.2087 17.1534 93.4643 15.9687 93.9757 14.9517C94.4928 13.9347 95.22 13.1449 96.1575 12.5824C97.095 12.0199 98.203 11.7386 99.4814 11.7386C100.76 11.7386 101.868 12.0199 102.805 12.5824C103.743 13.1449 104.467 13.9347 104.979 14.9517C105.496 15.9687 105.754 17.1534 105.754 18.5057C105.754 19.858 105.496 21.0398 104.979 22.0511C104.467 23.0625 103.743 23.8494 102.805 24.4119C101.868 24.9744 100.76 25.2557 99.4814 25.2557ZM99.4984 22.7841C100.192 22.7841 100.771 22.5937 101.237 22.2131C101.703 21.8267 102.05 21.3097 102.277 20.6619C102.51 20.0142 102.626 19.2926 102.626 18.4972C102.626 17.696 102.51 16.9716 102.277 16.3239C102.05 15.6705 101.703 15.1506 101.237 14.7642C100.771 14.3778 100.192 14.1847 99.4984 14.1847C98.7882 14.1847 98.1973 14.3778 97.7257 14.7642C97.2598 15.1506 96.9104 15.6705 96.6774 16.3239C96.4501 16.9716 96.3365 17.696 96.3365 18.4972C96.3365 19.2926 96.4501 20.0142 96.6774 20.6619C96.9104 21.3097 97.2598 21.8267 97.7257 22.2131C98.1973 22.5937 98.7882 22.7841 99.4984 22.7841ZM107.773 25V11.9091H110.722V14.1335H110.875C111.148 13.3835 111.599 12.7983 112.23 12.3778C112.861 11.9517 113.614 11.7386 114.489 11.7386C115.375 11.7386 116.122 11.9545 116.73 12.3864C117.344 12.8125 117.776 13.3949 118.026 14.1335H118.162C118.452 13.4062 118.94 12.8267 119.628 12.3949C120.321 11.9574 121.142 11.7386 122.091 11.7386C123.295 11.7386 124.278 12.1193 125.04 12.8807C125.801 13.642 126.182 14.7528 126.182 16.2131V25H123.088V16.6903C123.088 15.8778 122.872 15.2841 122.44 14.9091C122.009 14.5284 121.48 14.3381 120.855 14.3381C120.111 14.3381 119.528 14.571 119.108 15.0369C118.693 15.4972 118.486 16.0966 118.486 16.8352V25H115.46V16.5625C115.46 15.8864 115.256 15.3466 114.847 14.9432C114.443 14.5398 113.915 14.3381 113.261 14.3381C112.818 14.3381 112.415 14.4517 112.051 14.679C111.688 14.9006 111.398 15.2159 111.182 15.625C110.966 16.0284 110.858 16.5 110.858 17.0398V25H107.773ZM126.98 10.196V7.54545H140.906V10.196H135.511V25H132.374V10.196H126.98ZM157.157 13.4347H153.97C153.879 12.9119 153.711 12.4489 153.467 12.0455C153.223 11.6364 152.919 11.2898 152.555 11.0057C152.191 10.7216 151.777 10.5085 151.311 10.3665C150.85 10.2188 150.353 10.1449 149.819 10.1449C148.87 10.1449 148.029 10.3835 147.296 10.8608C146.563 11.3324 145.99 12.0256 145.575 12.9403C145.16 13.8494 144.953 14.9602 144.953 16.2727C144.953 17.608 145.16 18.733 145.575 19.6477C145.995 20.5568 146.569 21.2443 147.296 21.7102C148.029 22.1705 148.867 22.4006 149.811 22.4006C150.333 22.4006 150.822 22.3324 151.277 22.196C151.737 22.054 152.149 21.8466 152.512 21.5739C152.882 21.3011 153.191 20.9659 153.441 20.5682C153.697 20.1705 153.873 19.7159 153.97 19.2045L157.157 19.2216C157.038 20.0511 156.779 20.8295 156.382 21.5568C155.99 22.2841 155.475 22.9261 154.839 23.483C154.203 24.0341 153.458 24.4659 152.606 24.7784C151.754 25.0852 150.808 25.2386 149.768 25.2386C148.234 25.2386 146.865 24.8835 145.66 24.1733C144.456 23.4631 143.507 22.4375 142.813 21.0966C142.12 19.7557 141.774 18.1477 141.774 16.2727C141.774 14.392 142.123 12.7841 142.822 11.4489C143.521 10.108 144.473 9.08239 145.677 8.37216C146.882 7.66193 148.245 7.30682 149.768 7.30682C150.74 7.30682 151.643 7.44318 152.478 7.71591C153.313 7.98864 154.058 8.3892 154.711 8.91761C155.365 9.44034 155.902 10.0824 156.322 10.8438C156.748 11.5994 157.027 12.4631 157.157 13.4347ZM171.146 13.1193C171.004 12.6591 170.808 12.2472 170.558 11.8835C170.314 11.5142 170.018 11.1989 169.672 10.9375C169.331 10.6761 168.939 10.4801 168.495 10.3494C168.052 10.2131 167.569 10.1449 167.047 10.1449C166.109 10.1449 165.274 10.3807 164.541 10.8523C163.808 11.3239 163.231 12.017 162.811 12.9318C162.396 13.8409 162.189 14.9489 162.189 16.2557C162.189 17.5739 162.396 18.6903 162.811 19.6051C163.226 20.5199 163.802 21.2159 164.541 21.6932C165.28 22.1648 166.137 22.4006 167.115 22.4006C168.001 22.4006 168.768 22.2301 169.416 21.8892C170.069 21.5483 170.572 21.0653 170.924 20.4403C171.277 19.8097 171.453 19.071 171.453 18.2244L172.169 18.3352H167.43V15.8636H174.512V17.9602C174.512 19.4545 174.194 20.7472 173.558 21.8381C172.922 22.929 172.047 23.7699 170.933 24.3608C169.819 24.946 168.541 25.2386 167.098 25.2386C165.49 25.2386 164.078 24.8778 162.862 24.1562C161.652 23.429 160.706 22.3977 160.024 21.0625C159.348 19.7216 159.01 18.1307 159.01 16.2898C159.01 14.8807 159.209 13.6222 159.606 12.5142C160.01 11.4062 160.572 10.4659 161.294 9.69318C162.015 8.91477 162.862 8.32386 163.834 7.92045C164.805 7.51136 165.862 7.30682 167.004 7.30682C167.97 7.30682 168.87 7.44886 169.706 7.73295C170.541 8.01136 171.282 8.40909 171.93 8.92614C172.584 9.44318 173.12 10.0568 173.541 10.767C173.961 11.4773 174.237 12.2614 174.368 13.1193H171.146ZM178.734 25.1875C178.217 25.1875 177.774 25.0057 177.405 24.642C177.035 24.2784 176.854 23.8352 176.859 23.3125C176.854 22.8011 177.035 22.3636 177.405 22C177.774 21.6364 178.217 21.4545 178.734 21.4545C179.234 21.4545 179.669 21.6364 180.038 22C180.413 22.3636 180.604 22.8011 180.609 23.3125C180.604 23.6591 180.513 23.9744 180.337 24.2585C180.166 24.5426 179.939 24.7699 179.655 24.9403C179.376 25.1051 179.069 25.1875 178.734 25.1875ZM186.962 25.2642C186.132 25.2642 185.385 25.1165 184.72 24.821C184.061 24.5199 183.538 24.0767 183.152 23.4915C182.771 22.9062 182.581 22.1847 182.581 21.3267C182.581 20.5881 182.717 19.9773 182.99 19.4943C183.263 19.0114 183.635 18.625 184.107 18.3352C184.578 18.0455 185.109 17.8267 185.7 17.679C186.297 17.5256 186.913 17.4148 187.55 17.3466C188.317 17.267 188.939 17.196 189.416 17.1335C189.893 17.0653 190.24 16.9631 190.456 16.8267C190.678 16.6847 190.788 16.4659 190.788 16.1705V16.1193C190.788 15.4773 190.598 14.9801 190.217 14.6278C189.837 14.2756 189.288 14.0994 188.572 14.0994C187.817 14.0994 187.217 14.2642 186.774 14.5938C186.337 14.9233 186.041 15.3125 185.888 15.7614L183.007 15.3523C183.234 14.5568 183.609 13.892 184.132 13.358C184.655 12.8182 185.294 12.4148 186.05 12.1477C186.805 11.875 187.641 11.7386 188.555 11.7386C189.186 11.7386 189.814 11.8125 190.439 11.9602C191.064 12.108 191.635 12.3523 192.152 12.6932C192.669 13.0284 193.084 13.4858 193.396 14.0653C193.714 14.6449 193.874 15.3693 193.874 16.2386V25H190.908V23.2017H190.805C190.618 23.5653 190.354 23.9062 190.013 24.2244C189.678 24.5369 189.254 24.7898 188.743 24.983C188.237 25.1705 187.643 25.2642 186.962 25.2642ZM187.763 22.9972C188.382 22.9972 188.919 22.875 189.374 22.6307C189.828 22.3807 190.178 22.0511 190.422 21.642C190.672 21.233 190.797 20.7869 190.797 20.304V18.7614C190.7 18.8409 190.536 18.9148 190.303 18.983C190.075 19.0511 189.82 19.1108 189.536 19.1619C189.251 19.2131 188.97 19.2585 188.692 19.2983C188.413 19.3381 188.172 19.3722 187.967 19.4006C187.507 19.4631 187.095 19.5653 186.732 19.7074C186.368 19.8494 186.081 20.0483 185.871 20.304C185.661 20.554 185.555 20.8778 185.555 21.2756C185.555 21.8438 185.763 22.2727 186.178 22.5625C186.592 22.8523 187.121 22.9972 187.763 22.9972ZM196.376 25V11.9091H199.367V14.0909H199.504C199.742 13.3352 200.151 12.7528 200.731 12.3438C201.316 11.929 201.984 11.7216 202.734 11.7216C202.904 11.7216 203.095 11.7301 203.305 11.7472C203.521 11.7585 203.7 11.7784 203.842 11.8068V14.6449C203.711 14.5994 203.504 14.5597 203.22 14.5256C202.941 14.4858 202.671 14.4659 202.41 14.4659C201.847 14.4659 201.342 14.5881 200.893 14.8324C200.45 15.071 200.1 15.4034 199.845 15.8295C199.589 16.2557 199.461 16.7472 199.461 17.304V25H196.376ZM212.532 11.9091V14.2955H205.006V11.9091H212.532ZM206.864 8.77273H209.949V21.0625C209.949 21.4773 210.012 21.7955 210.137 22.017C210.267 22.233 210.438 22.3807 210.648 22.4602C210.858 22.5398 211.091 22.5795 211.347 22.5795C211.54 22.5795 211.716 22.5653 211.875 22.5369C212.04 22.5085 212.165 22.483 212.25 22.4602L212.77 24.8722C212.605 24.929 212.37 24.9915 212.063 25.0597C211.762 25.1278 211.392 25.1676 210.955 25.179C210.182 25.2017 209.486 25.0852 208.867 24.8295C208.247 24.5682 207.756 24.1648 207.392 23.6193C207.034 23.0739 206.858 22.392 206.864 21.5739V8.77273Z" fill="white"/>
<defs>
<clipPath id="clip0_4_47">
<rect width="32" height="32" fill="white"/>
</clipPath>
</defs>
</svg>
